<svg width="169" height="32" viewBox="0 0 169 32" fill="none" xmlns="http://www.w3.org/2000/svg">
    <path fill-rule="evenodd" clip-rule="evenodd"
        d="M122.188 0.495486C124.917 0.532831 127.46 0.66354 127.983 0.775575C128.507 0.906284 129.722 1.3731 130.694 1.83992C132.19 2.53081 132.694 2.90425 133.872 4.0993C134.751 4.99559 135.536 6.02258 135.966 6.84418C136.34 7.57241 136.845 8.82348 137.088 9.64508C137.48 11.0269 137.499 11.5123 137.518 15.807C137.518 19.1121 137.443 20.7926 137.256 21.5956C137.106 22.2118 136.789 23.2201 136.527 23.8363C136.284 24.4525 135.76 25.4048 135.387 25.965C135.013 26.5251 134.34 27.3654 133.872 27.8322C133.405 28.2804 132.526 28.9899 131.909 29.3821C131.292 29.7742 130.32 30.2783 129.759 30.4837C129.198 30.7078 128.058 31.0066 127.236 31.156C126.039 31.38 124.674 31.4174 120.505 31.3427C117.215 31.3053 114.99 31.1746 114.523 31.0439C114.112 30.9132 113.308 30.6331 112.747 30.4277C112.186 30.2036 111.214 29.7182 110.597 29.326C109.98 28.9526 109.045 28.187 108.541 27.6268C108.017 27.0853 107.288 26.133 106.914 25.5168C106.54 24.9006 105.998 23.7242 105.718 22.9026C105.194 21.4462 105.194 21.2968 105.119 16.5539C105.063 12.6327 105.119 11.4376 105.344 10.2986C105.512 9.53304 105.923 8.31932 106.26 7.59109C106.578 6.88153 107.232 5.81719 107.699 5.23833C108.167 4.65948 108.914 3.83789 109.382 3.42709C109.849 3.01629 110.765 2.4001 111.438 2.02664C112.111 1.65319 113.158 1.22372 113.775 1.05566C114.392 0.868939 115.439 0.663538 116.112 0.570175C116.785 0.495485 119.514 0.458141 122.188 0.495486ZM115.121 6.91887C114.579 7.06825 113.756 7.5164 113.252 7.90852C112.635 8.41268 112.186 8.99154 111.756 9.86915L111.158 11.1389V20.8487C111.924 22.4358 112.523 23.2388 112.971 23.6309C113.401 24.0417 114.243 24.5832 114.803 24.8446L115.832 25.3301H126.675C128.563 24.4338 129.385 23.8923 129.741 23.5375C130.077 23.1827 130.563 22.5292 130.788 22.0624C131.031 21.5956 131.311 20.7179 131.423 20.1018C131.535 19.4856 131.629 17.637 131.629 15.9938C131.629 14.3506 131.535 12.4833 131.442 11.8298C131.33 11.1949 131.087 10.3173 130.862 9.88782C130.638 9.43967 130.152 8.76746 129.778 8.37534C129.404 7.98321 128.731 7.46038 128.264 7.21763C127.796 6.99356 126.974 6.6948 126.432 6.58277C125.852 6.47073 123.758 6.39604 121.197 6.39604C118.86 6.41471 116.766 6.47073 116.523 6.52674C116.299 6.58276 115.663 6.75082 115.121 6.91887ZM0.950989 0.962302H6.93338V12.9128H25.0675V0.962302H31.0499V31.0252L25.161 30.9319L25.0675 18.888H6.93338V31.0252L1.04446 30.9319L0.950989 0.962302ZM64.4204 1.05566L65.056 1.52248C65.4112 1.7839 65.8225 2.26938 65.9534 2.60549C66.1404 3.07231 66.1964 6.04126 66.1964 31.0252H60.401V23.7429H42.0799V31.0252L36.191 30.9319V22.4358C36.2097 16.0871 36.2658 13.6597 36.4527 12.8194C36.5836 12.2032 36.9014 11.1202 37.1631 10.392C37.4062 9.66375 37.8362 8.71144 38.0979 8.24463C38.3783 7.77781 38.9392 6.95622 39.3505 6.39604C39.7804 5.83586 40.6591 4.9209 41.3321 4.37939C42.0051 3.83789 43.0895 3.09098 43.7625 2.7362C44.4355 2.40009 45.3515 1.97062 45.8189 1.80257C46.2863 1.63452 47.2023 1.3731 47.8754 1.24239C48.7914 1.05566 50.96 0.999647 64.4204 1.05566ZM47.5949 7.53507C46.978 7.77781 46.0993 8.24463 45.632 8.54339C45.1646 8.86083 44.4916 9.4957 44.1177 9.94384C43.7438 10.392 43.239 11.1389 43.0147 11.6057C42.7903 12.0725 42.4912 12.9875 42.3417 13.6597C42.2108 14.3319 42.0799 15.527 42.0799 16.3299V17.7677H60.401L60.3075 6.84418C53.0726 6.80684 50.4553 6.86285 49.8383 6.93754C49.2214 7.03091 48.2119 7.29233 47.5949 7.53507ZM73.9362 0.943628L94.5193 1.05566L95.5475 1.52248C96.1084 1.7839 96.9497 2.34408 97.417 2.77355C97.8844 3.18435 98.5013 3.98727 98.8192 4.52878C99.3052 5.42506 99.38 5.7425 99.4361 7.49772C99.4922 8.58074 99.4174 9.99986 99.3052 10.6721C99.1931 11.3443 98.7818 12.5207 97.6975 14.6867L99.0248 15.9938C99.8474 16.7967 100.539 17.693 100.838 18.3279C101.1 18.888 101.455 19.8964 101.605 20.5686C101.773 21.2408 101.904 22.4918 101.904 23.3695C101.904 24.2471 101.773 25.4235 101.623 25.9836C101.474 26.5438 101.137 27.3467 100.894 27.7575C100.651 28.1683 100.016 28.9152 99.4548 29.4007C98.8752 29.9236 98.0527 30.4277 97.5105 30.6144C96.6692 30.8945 95.4167 30.9319 73.9548 30.9319L73.2631 30.5211C72.8705 30.2783 72.4032 29.8115 72.2349 29.4941C71.9171 28.9152 71.8984 27.9069 71.8984 15.8631C71.8984 2.96027 71.8984 2.84824 72.291 2.3254C72.5153 2.04531 72.964 1.61585 73.3192 1.3731L73.9362 0.943628ZM77.7686 25.05C93.4537 25.05 95.5101 24.994 95.6971 24.8073C95.828 24.6765 95.9214 24.0604 95.9214 23.3134C95.9027 22.6039 95.7906 21.7449 95.6223 21.3528C95.4541 20.9794 95.1362 20.4565 94.9119 20.2138C94.6876 19.971 94.1641 19.5976 93.7528 19.3735C93.0424 19.0001 92.7807 18.9814 86.144 18.9254L79.2642 18.888V12.9128L90.7616 12.8194C92.2385 11.9792 92.5937 11.587 92.9676 10.8401C93.3976 9.99986 93.4911 9.58906 93.4911 8.4687C93.4724 7.311 93.435 7.08693 93.0985 6.93754C92.8742 6.82551 89.8643 6.75082 85.2466 6.75082H77.7686V25.05ZM139.462 0.962302H169V6.75082H157.222V31.0252L151.333 30.9319L151.24 6.75082H139.462V0.962302Z"
        fill="white" />
</svg>
    